<svg width="28" height="24" viewBox="0 0 28 24" fill="none" xmlns="http://www.w3.org/2000/svg">
<path d="M26.12 19.1904L4.5099 1.05739C3.81394 0.473408 2.77635 0.564186 2.19237 1.26014L2.05739 1.42101C1.47341 2.11697 1.56418 3.15456 2.26014 3.73854L23.8703 21.8716C24.5662 22.4556 25.6038 22.3648 26.1878 21.6688L26.3228 21.508C26.9067 20.812 26.816 19.7744 26.12 19.1904Z" fill="#DEDEDE"/>
<path d="M23.4298 1.34302L1.81971 19.4761C1.12376 20.06 1.03298 21.0976 1.61696 21.7936L1.75194 21.9545C2.33592 22.6504 3.37351 22.7412 4.06947 22.1572L25.6796 4.02418C26.3755 3.4402 26.4663 2.40261 25.8823 1.70665L25.7474 1.54578C25.1634 0.849822 24.1258 0.759045 23.4298 1.34302Z" fill="#DEDEDE"/>
</svg>
