<svg width="32" height="21" viewBox="0 0 32 21" fill="none" xmlns="http://www.w3.org/2000/svg">
<path d="M29.8514 9H2.14857C0.961948 9 0 9.63128 0 10.41V10.59C0 11.3687 0.961948 12 2.14857 12H29.8514C31.0381 12 32 11.3687 32 10.59V10.41C32 9.63128 31.0381 9 29.8514 9Z" fill="black"/>
<path d="M29.855 17.5H1.645C0.736492 17.5 0 18.2365 0 19.145V19.355C0 20.2635 0.736492 21 1.645 21H29.855C30.7635 21 31.5 20.2635 31.5 19.355V19.145C31.5 18.2365 30.7635 17.5 29.855 17.5Z" fill="black"/>
<path d="M29.855 0H1.645C0.736492 0 0 0.736492 0 1.645V1.855C0 2.76351 0.736492 3.5 1.645 3.5H29.855C30.7635 3.5 31.5 2.76351 31.5 1.855V1.645C31.5 0.736492 30.7635 0 29.855 0Z" fill="black"/>
</svg>
